<svg xmlns="http://www.w3.org/2000/svg" width="60" height="60" viewBox="0 0 60 60">
    <g fill="none" fill-rule="evenodd">
        <g fill="#FFF">
            <g>
                <g>
                    <path d="M46.92 51.702c1.875 0 2.698.826 2.698 2.217v2.985H47.96v-.556c-.418.392-.993.652-1.829.652-1.14 0-2.077-.557-2.077-1.574v-.02c0-1.122 1.005-1.64 2.438-1.64.61 0 1.05.086 1.479.21v-.086c0-.605-.441-.94-1.298-.94-.363 0-.667.033-.96.091v-1.244c.35-.06.74-.095 1.208-.095zm-.022 2.937c-.733 0-1.185.25-1.185.71v.019c0 .394.384.624.937.624.802 0 1.344-.374 1.344-.902v-.26c-.295-.114-.677-.191-1.096-.191zM35.697 51.685c1.925 0 2.725 1.338 2.725 2.769v.02c0 .141-.01.226-.02.357h-3.97c.155.646.69 1.014 1.346 1.048.327.016.567 0 1.126-.162v1.126c-.601.148-.966.157-1.22.157-1.665 0-2.784-1.092-2.784-2.64 0-1.466 1.135-2.675 2.797-2.675zm.018 1.177c-.696 0-1.15.424-1.283 1.075h2.535c-.101-.642-.543-1.075-1.252-1.075zM53.492 0h-16.16c-3.54 0-7.156 1.908-8.83 3.106-8.073 5.77-12.042 17.44-12.042 17.44 1.12-1.95 9.355-17.035 20.526-17.035H48.79s.033 1.951-.997 3.304C54.204 4.606 53.492 0 53.492 0" transform="translate(-120 -18) translate(120 18) translate(3 1.5)"/>
                    <path d="M39.364 7.972c-.02.387-.104 1.49-.63 2.466l-.007.001v.006C44 9.985 46.545 8.4 47.749 6.83c-2.016.69-4.725 1.143-8.385 1.143" transform="translate(-120 -18) translate(120 18) translate(3 1.5)"/>
                    <path d="M35.553 10.594s-1.143-.014-3.258-.062c-8.477-.195-12.488 5.97-14.448 8.972 1.96-2.046 5.79-5.856 12.735-5.725 5.384.102 7.372-1.638 8.171-3.34-.976.09-2.033.177-3.2.155M52.612 26.217c.271 0 .554.014.884.041V22.19c-.284-.013-.589-.035-.878-.035-5.683 0-11.694 1.98-13.29 6.542v-6.536h-6.016v12.437l-7.372-8.172c-2.781-3.087-6.148-4.265-9.48-4.265v14.441h-2.855c-4.44-.032-7.534-2.27-7.534-5.439 0-2.861 2.493-4.57 6.275-4.892v-4.08C6.148 22.536 0 25.27 0 31.176c0 6.788 6.998 9.461 13.59 9.49v.002H22.557V28.883l10.616 11.785h6.154v-6.825c1.597 4.866 7.608 6.83 13.29 6.83.29 0 .575-.014.859-.029h.02v-4.076c-.33.03-.613.04-.884.04-4.49 0-7.627-2.249-7.627-5.44 0-3.19 3.098-4.95 7.627-4.95M8.965 51.696c1.916 0 2.712 1.331 2.712 2.756v.02c0 .14-.01.224-.02.356h-3.95c.154.642.687 1.009 1.339 1.042.327.017.565 0 1.12-.16v1.119c-.598.147-.96.156-1.213.156-1.656 0-2.77-1.086-2.77-2.626 0-1.459 1.128-2.663 2.782-2.663zm.02 1.172c-.695 0-1.146.421-1.278 1.069h2.522c-.1-.637-.54-1.07-1.245-1.07zM3.508 52.713c-1.33-.307-1.516-.455-1.516-.91v-.02c0-.338.34-.604.988-.604.443 0 .958.166 1.262.29v-1.455c-.28-.052-.792-.184-1.239-.184-1.574 0-2.694.833-2.694 2.093v.018c0 1.378.999 1.764 2.551 2.12 1.287.297 1.408.496 1.408.882v.02c0 .407-.418.654-1.111.654-.88 0-1.463-.327-2.155-.842L0 55.855c.925.742 1.958 1.11 3.124 1.11 1.66 0 2.826-.773 2.826-2.15v-.02c0-1.21-.88-1.714-2.442-2.082M20.443 55.846c-.12.019-.242.03-.367.03-1.028 0-1.863-.69-1.863-1.541 0-.852.835-1.542 1.863-1.542.125 0 .248.01.367.031v-1.078c-.221-.031-.458-.047-.714-.047-1.775 0-3.114 1.134-3.114 2.65 0 1.07.656 1.861 1.45 2.274.546.284 1.132.373 1.614.376.283.003.528-.02.764-.06v-1.093zM14.601 53.623c-.933-.203-1.017-.303-1.017-.468 0-.23.184-.44.73-.44.141 0 .301.014.467.043v-1.036c-.176-.024-.358-.037-.546-.037-1.377 0-2.302.66-2.375 1.566-.086 1.003.692 1.232 1.983 1.494 1.07.218.959.535.959.632 0 .153-.114.477-.747.456-.65-.021-1.41-.216-1.998-.548v1.265c.613.274 1.39.446 1.994.446 1.448 0 2.443-.85 2.443-1.766 0-.918-.704-1.347-1.893-1.607M30.273 52.727c-1.337-.309-1.524-.457-1.524-.915v-.02c0-.338.341-.606.993-.606.445 0 .963.167 1.268.29v-1.461c-.283-.053-.795-.184-1.246-.184-1.58 0-2.707.836-2.707 2.101v.02c0 1.384 1.005 1.771 2.564 2.13 1.292.299 1.414.499 1.414.886v.02c0 .408-.42.657-1.116.657-.884 0-1.47-.328-2.166-.846l-1.005 1.085c.927.746 1.966 1.115 3.139 1.115 1.668 0 2.84-.777 2.84-2.16v-.02c0-1.215-.886-1.723-2.454-2.092M43.88 54.274c0-1.394-.848-2.482-2.642-2.482s-2.643 1.088-2.643 2.482v2.725h1.661v-2.826c.03-.516.233-1.126.982-1.126s.968.61.997 1.126v2.826h1.646v-2.725zM53.639 55.84c-.12.02-.243.032-.37.032-1.032 0-1.87-.694-1.87-1.55 0-.856.838-1.55 1.87-1.55.127 0 .25.011.37.032V51.72c-.222-.031-.46-.048-.717-.048-1.784 0-3.13 1.14-3.13 2.663 0 1.077.66 1.871 1.457 2.286.55.285 1.138.375 1.623.379.283.001.53-.02.767-.061V55.84z" transform="translate(-120 -18) translate(120 18) translate(3 1.5)"/>
                </g>
            </g>
        </g>
    </g>
</svg>
